<?xml version="1.0" encoding="utf-8"?>
<!-- Generator: Adobe Illustrator 16.0.4, SVG Export Plug-In . SVG Version: 6.00 Build 0)  -->
<!DOCTYPE svg PUBLIC "-//W3C//DTD SVG 1.1//EN" "http://www.w3.org/Graphics/SVG/1.1/DTD/svg11.dtd">
<svg version="1.1" id="Layer_1" xmlns="http://www.w3.org/2000/svg" xmlns:xlink="http://www.w3.org/1999/xlink" x="0px" y="0px"
	 width="1024px" height="1024px" viewBox="0 0 1024 1024" enable-background="new 0 0 1024 1024" xml:space="preserve">
<g>
	<path d="M508.251,40.633c1.223,0,2.51,0.049,3.748,0.049s2.526-0.049,3.748-0.049H508.251z"/>
	<path fill="#FFFFFF" d="M859.298,179.797c-10.387-51.931-43.606-72.703-93.475-93.475c-49.142-20.475-166.89-44.946-253.824-45.64
		c-86.937,0.694-204.684,25.165-253.824,45.64c-49.85,20.771-83.088,41.544-93.491,93.475l-37.383,287.888v396.671h64.38v62.218
		c0,75.855,111.011,75.855,111.011,0v-62.218h204.916h0.645h213.055v62.218c0,75.855,111.013,75.855,111.013,0v-62.218H896.7
		V467.685L859.298,179.797z M353.714,113.319h154.537h162.033c31.158,0,31.158,46.746,0,46.746H507.888H353.714
		C322.573,160.064,322.573,113.319,353.714,113.319z M247.245,740.002c-29.408,0-53.251-23.844-53.251-53.235
		c0-29.406,23.843-53.251,53.251-53.251c29.392,0,53.235,23.845,53.235,53.251C300.479,716.158,276.636,740.002,247.245,740.002z
		 M508.251,498.018H225.845c-27.658,0-33.437-19.863-30.745-39.877l29.127-208.794c3.979-25.379,12.583-42.106,45.491-42.106h238.17
		H754.28c32.91,0,41.512,16.727,45.508,42.106l29.111,208.794c2.706,20.014-3.089,39.877-30.746,39.877H508.251z M776.771,740.002
		c-29.408,0-53.253-23.844-53.253-53.235c0-29.406,23.845-53.251,53.253-53.251c29.391,0,53.233,23.845,53.233,53.251
		C830.005,716.158,806.161,740.002,776.771,740.002z"/>
</g>
</svg>
