<?xml version="1.0" encoding="utf-8"?>
<!-- Generator: Adobe Illustrator 16.0.4, SVG Export Plug-In . SVG Version: 6.00 Build 0)  -->
<!DOCTYPE svg PUBLIC "-//W3C//DTD SVG 1.1//EN" "http://www.w3.org/Graphics/SVG/1.1/DTD/svg11.dtd">
<svg version="1.1" id="Layer_1" xmlns="http://www.w3.org/2000/svg" xmlns:xlink="http://www.w3.org/1999/xlink" x="0px" y="0px"
	 width="1024px" height="1024px" viewBox="0 0 1024 1024" enable-background="new 0 0 1024 1024" xml:space="preserve">
<g>
	<path fill-rule="evenodd" clip-rule="evenodd" d="M207.905,681.072l2.104,6.164l3.516,5.252l4.398,5.105l5.091,4.385l5.443,4.398
		l6.164,3.502l6.841,3.529l13.888,4.561l13.697,3.164l13.52,0.883l2.987-0.529l2.633-0.354l5.09-0.867v-99.438h27.408h37.25h137.38
		h4.03h138.263h39.529h21.084v100.305l5.09,1.236l5.635,0.514h1.574h4.752l7.031-0.867l13.682-2.633l13.889-5.283l7.018-2.986
		l5.973-4.045l5.621-4.207l5.104-4.4l4.4-5.104l3.486-5.252l2.117-6.15l1.223-5.973l30.232-281.953l-26.703-248.425l-2.279-11.401
		l-2.986-10.357l-3.869-9.666l-5.105-8.974l-6.488-8.416l-8.254-7.4l-9.488-6.502l-11.24-5.605l-14.594-6.517l-13.52-4.737
		l-1.574-0.53l-15.125-4.561l-15.109-4.399l-1.574-0.353l-29.158-5.782l-10.371-1.413l-20.199-2.986l-30.572-2.986l-30.748-1.751
		l-56.743-2.119l-4.03-0.162l-61.305,2.28l-30.748,1.751l-30.233,2.986L357.937,48.3l-15.462,2.104l-15.109,2.633l-6.679,1.397
		l-8.43,2.104l-14.564,4.399l-12.137,3.692l-2.987,0.868l-15.124,5.267l-14.741,6.517l-11.24,5.605l-9.474,6.502l-8.092,7.4
		l-6.502,8.416l-5.267,8.974l-4.222,9.666l-2.648,10.357l-2.089,11.401l-26.702,247.88L206.507,675.1L207.905,681.072z
		 M667.812,518.933l-1.898,5.62l-2.824,4.914l-3.693,4.385l-4.398,3.691l-5.252,2.811l-5.635,1.766l-6.502,0.691l-5.973-0.691
		l-5.812-1.766l-5.076-2.811l-4.928-3.691l-3.693-4.385l-2.795-4.914l-1.412-5.62l-0.867-6.149l0.867-6.149l1.412-5.458l2.795-5.443
		l3.693-4.399l4.928-3.693l5.076-2.78l5.812-1.589l5.973-0.883l6.502,0.883l5.635,1.589l5.252,2.78l4.398,3.693l3.693,4.399
		l2.824,5.443l1.898,5.458l0.529,6.149L667.812,518.933z M740.209,518.933l-1.75,5.62l-2.811,4.914l-3.693,4.385l-4.752,3.691
		l-4.736,2.811l-6.135,1.766l-5.811,0.691h-0.354l-5.973-0.691l-5.605-1.766l-5.297-2.811l-4.369-3.691l-4.061-4.385l-2.973-4.914
		l-1.412-5.62l-0.529-6.149l0.529-6.149l1.412-5.458l2.973-5.443l4.061-4.399l4.369-3.693l5.297-2.78l5.605-1.589l5.973-0.883h0.354
		l5.811,0.883l6.135,1.589l4.736,2.78l4.752,3.693l3.693,4.399l2.811,5.443l1.75,5.458l0.691,6.149L740.209,518.933z
		 M588.412,154.579l0.529-3.693l1.428-4.031l2.09-3.707l2.986-3.693l2.633-2.81l3.354-2.442l3.502-1.604l3.164-0.515h29.512h39.529
		h33.383h8.092l5.781,0.868l3.516,1.25l3.693,1.927l4.045,3.325l3.164,4.208l2.441,5.105l1.236,6.518l22.67,228.372l0.691,7.724
		l-1.221,5.796l-2.457,4.046l-3.162,2.81l-3.693,1.589l-3.885,0.868l-6.473,0.353h-34.439h-33.383h-39.529h-28.277l-4.752-1.589
		l-4.383-2.795l-3.34-2.81l-2.635-3.178l-3.854-7.018l-1.957-5.796V154.579z M434.526,110.487h64.82h65.012v442.165h-65.012h-64.82
		V110.487z M315.081,518.58l-1.427,5.619l-2.972,5.268l-3.502,4.385l-4.59,3.691l-5.252,2.811l-5.458,1.766l-6.135,0.691h-0.191
		l-6.135-0.691l-5.812-1.766l-5.267-2.811l-4.399-3.691l-3.487-4.385l-2.839-5.268l-1.75-5.619l-0.707-6.15l0.707-5.973l1.75-5.811
		l2.839-5.252l3.487-4.414l4.399-3.854l5.267-2.634l5.812-2.104l6.135-0.353h0.191l6.135,0.353l5.458,2.104l5.252,2.634l4.59,3.854
		l3.502,4.414l2.972,5.252l1.427,5.811l0.868,5.973L315.081,518.58z M386.918,518.58l-1.589,5.619l-2.986,5.268l-3.501,4.385
		l-4.384,3.691l-4.928,2.811l-5.635,1.766l-5.958,0.691l-6.15-0.691l-5.62-1.766l-5.282-2.811l-4.384-3.691l-3.678-4.385
		l-2.633-5.268l-1.766-5.619l-0.353-6.15l0.353-5.973l1.766-5.811l2.633-5.252l3.678-4.414l4.384-3.854l5.282-2.634l5.62-2.104
		l6.15-0.353l5.958,0.353l5.635,2.104l4.928,2.634l4.384,3.854l3.501,4.414l2.986,5.252l1.589,5.811l0.707,5.973L386.918,518.58z
		 M232.856,377.684l24.76-221.531l1.589-8.077l2.633-6.164l3.34-4.546l3.692-2.648l3.163-2.119l2.295-0.868l2.089-0.353h9.136
		h35.132h37.25h28.644l3.501,0.353l3.693,1.221l3.693,1.957l3.692,2.457l2.987,2.972l2.457,3.531l1.751,3.678l0.691,4.561v234.536
		l-1.574,4.384l-1.574,3.693l-2.472,2.81l-2.266,2.81l-3.339,2.119l-3.693,1.574l-8.444,2.81h-27.747h-37.25h-35.132h-25.099
		l-5.296-0.353l-5.267-1.236l-5.252-2.266l-4.59-2.987l-3.501-4.045l-2.472-5.267l-1.574-6.164L232.856,377.684z"/>
	<rect x="372.339" y="695.475" fill-rule="evenodd" clip-rule="evenodd" width="252.102" height="36.898"/>
	<path fill-rule="evenodd" clip-rule="evenodd" d="M773.061,911.74l-35.676-40.59h75.898l-38.648-41.988h-74.133l-20.553-24.584
		h-38.824l14.756,24.584H497.596H339.841l14.933-24.76l-37.78,0.176l-21.244,24.584h-81.504l-39.722,42.693h84.167l-34.793,39.885
		h-82.225l-54.625,60.244l84.682-0.146l-22.156,25.467h88.183l15.477-25.467l244.364-0.367l244.025-0.354l16.861,28.113h91.346
		l-24.762-28.291h77.988l-56.213-59.199H773.061z M497.596,911.74H289.6l24.26-40.047l183.736-0.191l183.752-0.16l24.436,40.398
		H497.596z"/>
	<rect x="318.935" y="632.758" fill-rule="evenodd" clip-rule="evenodd" width="34.603" height="162.154"/>
	<rect x="640.434" y="632.758" fill-rule="evenodd" clip-rule="evenodd" width="34.588" height="162.154"/>
</g>
</svg>
