<?xml version="1.0" encoding="utf-8"?>
<!-- Generator: Adobe Illustrator 16.0.4, SVG Export Plug-In . SVG Version: 6.00 Build 0)  -->
<!DOCTYPE svg PUBLIC "-//W3C//DTD SVG 1.1//EN" "http://www.w3.org/Graphics/SVG/1.1/DTD/svg11.dtd">
<svg version="1.1" id="Layer_1" xmlns="http://www.w3.org/2000/svg" xmlns:xlink="http://www.w3.org/1999/xlink" x="0px" y="0px"
	 width="1024px" height="1024px" viewBox="0 0 1024 1024" enable-background="new 0 0 1024 1024" xml:space="preserve">
<g>
	<g>
		<path fill="#FFD400" d="M707.331,344.382c-0.038-47.142-37.42-85.348-83.769-85.928l0,0c-3.073,0.326-6.26-0.721-8.615-3.108l0,0
			v-0.051c-4.182-4.174-4.182-10.972,0-15.197l0,0c1.512-1.544,3.375-2.508,5.327-2.923l0,0c0.025,0,0.051-0.006,0.076-0.006l0,0
			c0.062-0.032,0.126-0.032,0.176-0.032l0,0c0.643-0.121,1.285-0.179,1.952-0.179l0,0c58.504,0,105.999,48.054,106.037,107.425l0,0
			c0,5.955-4.736,10.768-10.58,10.768l0,0C712.066,355.149,707.331,350.337,707.331,344.382L707.331,344.382z M860.044,344.171
			c-0.252-132.936-106.54-240.482-237.704-240.482l0,0v0.058c-5.844,0-10.604-4.832-10.604-10.749l0,0
			c0-5.968,4.761-10.742,10.604-10.742l0,0c142.814,0,258.649,117.12,258.927,261.87l0,0c0,5.949-4.761,10.742-10.604,10.787l0,0
			C864.779,354.913,860.044,350.107,860.044,344.171L860.044,344.171z"/>
		<path fill="#FFD400" d="M783.706,344.286c-0.214-89.911-71.766-162.679-160.32-163.208l0,0c-4.207,0.402-8.438-1.819-10.467-5.885
			l0,0c-2.619-5.361-0.479-11.77,4.761-14.431l0,0c0.605,0.096-0.894-0.492,4.774-1.174l0,0
			c100.696,0,182.235,82.603,182.449,184.641l0,0c0,5.936-4.748,10.742-10.592,10.799l0,0
			C788.455,355.028,783.706,350.222,783.706,344.286L783.706,344.286z"/>
	</g>
	<g>
		<g>
			<path fill="#FFFFFF" d="M405.771,271.148c0.854,0,1.713,0.004,2.576,0.012c0.863-0.007,1.722-0.012,2.576-0.012H405.771z
				 M647.631,368.329c-7.154-36.259-30.052-50.773-64.41-65.262c-33.847-14.314-114.997-31.424-174.874-31.907
				c-59.876,0.483-141.016,17.593-174.887,31.907c-34.321,14.489-57.244,29.002-64.385,65.262L143.306,569.36v276.99h44.359v43.427
				c0,52.976,76.489,52.976,76.489,0v-43.427h288.398v43.427c0,52.976,76.489,52.976,76.489,0v-43.427h44.347V569.36
				L647.631,368.329z M299.306,321.915h218.081c21.487,0,21.487,32.628,0,32.628H299.306
				C277.844,354.543,277.844,321.915,299.306,321.915z M225.941,759.51c-20.253,0-36.689-16.658-36.689-37.172
				c0-20.539,16.436-37.172,36.689-37.172c20.265,0,36.689,16.633,36.689,37.172C262.63,742.852,246.206,759.51,225.941,759.51z
				 M211.205,590.538c-19.068,0-23.048-13.876-21.172-27.866l20.039-145.784c2.758-17.725,8.678-29.392,31.361-29.392h333.854
				c22.671,0,28.59,11.667,31.336,29.392l20.076,145.784c1.864,13.99-2.142,27.866-21.197,27.866H211.205z M590.765,759.51
				c-20.265,0-36.701-16.658-36.701-37.172c0-20.539,16.437-37.172,36.701-37.172c20.253,0,36.677,16.633,36.677,37.172
				C627.441,742.852,611.018,759.51,590.765,759.51z"/>
		</g>
	</g>
</g>
</svg>
