<?xml version="1.0" encoding="utf-8"?>
<!-- Generator: Adobe Illustrator 16.0.4, SVG Export Plug-In . SVG Version: 6.00 Build 0)  -->
<!DOCTYPE svg PUBLIC "-//W3C//DTD SVG 1.1//EN" "http://www.w3.org/Graphics/SVG/1.1/DTD/svg11.dtd">
<svg version="1.1" id="Layer_1" xmlns="http://www.w3.org/2000/svg" xmlns:xlink="http://www.w3.org/1999/xlink" x="0px" y="0px"
	 width="1024px" height="1024px" viewBox="0 0 1024 1024" enable-background="new 0 0 1024 1024" xml:space="preserve">
<g>
	<g>
		<path fill="#FFD400" d="M708.979,323.795c-0.025-43.02-34.216-77.878-76.566-78.417l0,0c-2.805,0.302-5.711-0.648-7.881-2.825l0,0
			v-0.051c-3.795-3.808-3.795-10.004,0-13.863l0,0c1.396-1.406,3.084-2.286,4.886-2.658l0,0c0.038,0,0.051-0.019,0.076-0.019l0,0
			c0.038-0.026,0.102-0.026,0.152-0.026l0,0c0.584-0.109,1.181-0.161,1.777-0.161l0,0c53.493,0,96.896,43.848,96.922,98.021l0,0
			c0,5.432-4.34,9.811-9.671,9.811l0,0C713.318,333.606,708.979,329.228,708.979,323.795L708.979,323.795z M848.543,323.616
			c-0.241-121.322-97.354-219.445-217.234-219.445l0,0v0.058c-5.355,0-9.696-4.417-9.696-9.811l0,0c0-5.458,4.341-9.805,9.696-9.805
			l0,0c130.528,0,236.398,106.868,236.614,238.944l0,0c0,5.426-4.328,9.798-9.671,9.837l0,0
			C852.896,333.395,848.543,329.016,848.543,323.616L848.543,323.616z"/>
		<path fill="#FFD400" d="M778.779,323.712c-0.203-82.039-65.588-148.45-146.52-148.925l0,0c-3.845,0.36-7.729-1.663-9.556-5.374
			l0,0c-2.399-4.886-0.444-10.742,4.327-13.169l0,0c0.559,0.09-0.8-0.443,4.379-1.066l0,0c92.036,0,166.546,75.374,166.736,168.482
			l0,0c0,5.406-4.328,9.804-9.671,9.856l0,0C783.12,333.517,778.779,329.125,778.779,323.712L778.779,323.712z"/>
	</g>
	<path fill-rule="evenodd" clip-rule="evenodd" fill="#FFFFFF" d="M242.781,710.374l1.51,4.443l2.488,3.775l3.135,3.673l3.642,3.172
		l3.858,3.158l4.366,2.556l4.898,2.518l9.874,3.3l9.772,2.26l9.62,0.655l2.145-0.385l1.853-0.271l3.63-0.629v-71.656h19.532h26.512
		h97.836h2.881h98.432h28.162h15.001v72.285l3.63,0.899l4.01,0.386h1.13h3.363l5.013-0.63l9.772-1.913l9.861-3.788l5-2.157
		l4.264-2.916l4.011-3.03l3.617-3.185l3.135-3.647l2.5-3.801l1.497-4.443l0.876-4.302l21.512-203.161l-19.012-178.98l-1.624-8.238
		l-2.119-7.455l-2.754-6.973l-3.63-6.453l-4.633-6.074l-5.863-5.323l-6.776-4.674l-7.983-4.045l-10.406-4.694l-9.62-3.416
		l-1.13-0.392l-10.762-3.274l-10.749-3.172l-1.13-0.257l-20.763-4.18l-7.399-1.008l-14.366-2.151l-21.766-2.151l-21.904-1.265
		l-40.396-1.522l-2.881-0.128l-43.67,1.65l-21.88,1.265l-21.511,2.151l-10.775,1.644l-11.003,1.515l-10.775,1.914l-4.733,1.008
		l-6.016,1.516l-10.381,3.172l-8.618,2.646l-2.145,0.629l-10.762,3.808l-10.496,4.694l-8.008,4.045l-6.751,4.674l-5.762,5.323
		l-4.632,6.074l-3.744,6.453l-3.008,6.973l-1.865,7.455l-1.51,8.238l-19.012,178.602l21.397,202.911L242.781,710.374z
		 M570.276,593.527l-1.357,4.084l-2.006,3.544l-2.627,3.146l-3.135,2.646l-3.757,2.042l-3.984,1.259l-4.646,0.514l-4.251-0.514
		l-4.138-1.259l-3.592-2.042l-3.528-2.646l-2.627-3.146l-1.992-3.544l-0.99-4.084l-0.634-4.417l0.634-4.418l0.99-3.93l1.992-3.929
		l2.627-3.159l3.528-2.658l3.592-2.029l4.138-1.143l4.251-0.643l4.646,0.643l3.984,1.143l3.757,2.029l3.135,2.658l2.627,3.159
		l2.006,3.929l1.357,3.93l0.381,4.418L570.276,593.527z M621.841,593.527l-1.244,4.084l-2.018,3.544l-2.614,3.146l-3.389,2.646
		l-3.376,2.042l-4.391,1.259l-4.112,0.514h-0.241l-4.265-0.514l-3.997-1.259l-3.77-2.042l-3.122-2.646l-2.868-3.146l-2.145-3.544
		l-0.978-4.084l-0.394-4.417l0.394-4.418l0.978-3.93l2.145-3.929l2.868-3.159l3.122-2.658l3.77-2.029l3.997-1.143l4.265-0.643h0.241
		l4.112,0.643l4.391,1.143l3.376,2.029l3.389,2.658l2.614,3.159l2.018,3.929l1.244,3.93l0.482,4.418L621.841,593.527z
		 M513.737,331.006l0.381-2.646l1.016-2.928l1.497-2.658l2.132-2.658l1.866-2.016l2.373-1.779l2.5-1.136l2.259-0.373h21.004h28.162
		h23.771h5.749l4.125,0.629l2.513,0.879l2.614,1.387l2.881,2.408l2.246,3.05l1.752,3.653l0.888,4.7l16.131,164.56l0.508,5.573
		l-0.876,4.167l-1.764,2.915l-2.247,2.022l-2.64,1.137l-2.741,0.629l-4.619,0.263h-24.52h-23.771h-28.162h-20.128l-3.376-1.136
		l-3.135-2.029l-2.36-2.023l-1.891-2.292l-2.741-5.047l-1.396-4.18V331.006z M404.162,299.236h46.171h46.285V617.85h-46.285h-46.171
		V299.236z M319.105,593.283l-1.028,4.059l-2.12,3.813l-2.513,3.146l-3.249,2.646l-3.731,2.042l-3.896,1.259l-4.378,0.514h-0.102
		l-4.391-0.514l-4.137-1.259l-3.756-2.042l-3.122-2.646l-2.488-3.146l-2.005-3.813l-1.256-4.059l-0.508-4.417l0.508-4.314
		l1.256-4.174l2.005-3.801l2.488-3.146l3.122-2.8l3.756-1.9l4.137-1.528l4.391-0.231h0.102l4.378,0.231l3.896,1.528l3.731,1.9
		l3.249,2.8l2.513,3.146l2.12,3.801l1.028,4.174l0.609,4.314L319.105,593.283z M370.264,593.283l-1.142,4.059l-2.12,3.813
		l-2.487,3.146l-3.135,2.646l-3.503,2.042l-3.998,1.259l-4.264,0.514l-4.378-0.514l-3.998-1.259l-3.77-2.042l-3.122-2.646
		l-2.602-3.146l-1.891-3.813l-1.256-4.059l-0.254-4.417l0.254-4.314l1.256-4.174l1.891-3.801l2.602-3.146l3.122-2.8l3.77-1.9
		l3.998-1.528l4.378-0.231l4.264,0.231l3.998,1.528l3.503,1.9l3.135,2.8l2.487,3.146l2.12,3.801l1.142,4.174l0.508,4.314
		L370.264,593.283z M260.536,491.777l17.654-159.622l1.117-5.817l1.878-4.45l2.373-3.287l2.627-1.895l2.247-1.521l1.65-0.623
		l1.498-0.257h6.51h25.015h26.512h20.395l2.5,0.257l2.627,0.88l2.627,1.393l2.627,1.766l2.132,2.157l1.751,2.536l1.244,2.646
		l0.508,3.3v168.996l-1.13,3.146l-1.129,2.671l-1.751,2.022l-1.625,2.022l-2.373,1.522l-2.614,1.136l-6.003,2.029h-19.786h-26.512
		h-25.015h-17.895l-3.769-0.263l-3.744-0.873l-3.756-1.65l-3.249-2.151l-2.513-2.909l-1.751-3.794l-1.129-4.431L260.536,491.777z"/>
	<rect x="359.87" y="720.763" fill-rule="evenodd" clip-rule="evenodd" fill="#FFFFFF" width="179.529" height="26.595"/>
	<path fill-rule="evenodd" clip-rule="evenodd" fill="#FFFFFF" d="M645.218,876.583l-25.382-29.228h54.039l-27.515-30.268h-52.809
		l-14.633-17.722h-27.653l10.508,17.722H449.076H336.734l10.622-17.862l-26.893,0.141l-15.127,17.722h-58.05l-28.263,30.756h59.928
		l-24.786,28.739h-58.557l-38.886,43.418l60.296-0.128l-15.775,18.351h62.809l11.016-18.351l174.008-0.258l173.743-0.243
		l12.018,20.238h65.056l-17.628-20.367H737.8l-40.028-42.66H645.218z M449.076,876.583H300.97l17.248-28.868l130.858-0.115
		l130.846-0.128l17.399,29.111H449.076z"/>
	<rect x="321.834" y="675.561" fill-rule="evenodd" clip-rule="evenodd" fill="#FFFFFF" width="24.646" height="116.846"/>
	<rect x="550.771" y="675.561" fill-rule="evenodd" clip-rule="evenodd" fill="#FFFFFF" width="24.646" height="116.846"/>
</g>
</svg>
