<?xml version="1.0" encoding="utf-8"?>
<!-- Generator: Adobe Illustrator 16.0.4, SVG Export Plug-In . SVG Version: 6.00 Build 0)  -->
<!DOCTYPE svg PUBLIC "-//W3C//DTD SVG 1.1//EN" "http://www.w3.org/Graphics/SVG/1.1/DTD/svg11.dtd">
<svg version="1.1" id="Layer_1" xmlns="http://www.w3.org/2000/svg" xmlns:xlink="http://www.w3.org/1999/xlink" x="0px" y="0px"
	 width="1024px" height="1024px" viewBox="0 0 1024 1024" enable-background="new 0 0 1024 1024" xml:space="preserve">
<g>
	<path fill-rule="evenodd" clip-rule="evenodd" fill="#FFFFFF" d="M240.743,664.923l1.987,5.821l3.319,4.958l4.153,4.821
		l4.807,4.139l5.138,4.153l5.821,3.306l6.46,3.335l13.112,4.305l12.932,2.986l12.766,0.833l2.821-0.498l2.486-0.335l4.805-0.819
		V608.04h25.88h35.171h129.713h3.804h130.545h37.324h19.906v94.707l4.807,1.168l5.318,0.485h1.488h4.486l6.641-0.82l12.918-2.485
		l13.113-4.986l6.625-2.819l5.639-3.82l5.307-3.974l4.82-4.152l4.154-4.82l3.291-4.959l2-5.808l1.154-5.639l28.543-266.216
		l-25.209-234.559l-2.154-10.765l-2.818-9.781l-3.654-9.125l-4.818-8.473l-6.127-7.945l-7.795-6.988l-8.957-6.14l-10.615-5.292
		L728.07,88.68l-12.764-4.472l-1.488-0.5L699.541,79.4l-14.266-4.153l-1.488-0.333l-27.531-5.459l-9.793-1.333l-19.07-2.82
		l-28.865-2.82l-29.033-1.653l-53.576-2l-3.804-0.153l-57.884,2.153l-29.032,1.653l-28.545,2.82l-14.251,2.167l-14.6,1.987
		l-14.265,2.486l-6.306,1.319l-7.96,1.986L325.519,79.4l-11.46,3.487l-2.821,0.819l-14.279,4.973l-13.918,6.154l-10.612,5.292
		l-8.946,6.14l-7.64,6.988l-6.14,7.945l-4.973,8.473l-3.987,9.125l-2.5,9.781l-1.972,10.765l-25.212,234.045l28.366,265.896
		L240.743,664.923z M674.982,511.833l-1.793,5.306l-2.668,4.64l-3.486,4.141l-4.152,3.485l-4.959,2.653l-5.322,1.667l-6.139,0.654
		l-5.639-0.654l-5.486-1.667l-4.793-2.653l-4.652-3.485l-3.486-4.141l-2.641-4.64l-1.334-5.306l-0.818-5.805l0.818-5.808
		l1.334-5.153l2.641-5.14l3.486-4.153l4.652-3.487l4.793-2.625l5.486-1.501l5.639-0.833l6.139,0.833l5.322,1.501l4.959,2.625
		l4.152,3.487l3.486,4.153l2.668,5.14l1.793,5.153l0.498,5.808L674.982,511.833z M743.338,511.833l-1.652,5.306l-2.654,4.64
		l-3.486,4.141l-4.486,3.485l-4.475,2.653l-5.791,1.667l-5.486,0.654h-0.334l-5.639-0.654l-5.293-1.667l-5.002-2.653l-4.125-3.485
		l-3.834-4.141l-2.807-4.64l-1.332-5.306l-0.5-5.805l0.5-5.808l1.332-5.153l2.807-5.14l3.834-4.153l4.125-3.487l5.002-2.625
		l5.293-1.501l5.639-0.833h0.334l5.486,0.833l5.791,1.501l4.475,2.625l4.486,3.487l3.486,4.153l2.654,5.14l1.652,5.153l0.652,5.808
		L743.338,511.833z M600.012,167.815l0.502-3.487l1.346-3.806l1.975-3.5l2.818-3.485l2.486-2.653l3.168-2.306l3.307-1.514
		l2.984-0.487h27.865h37.324h31.52h7.639l5.459,0.819l3.32,1.182l3.486,1.819l3.82,3.14l2.986,3.972l2.305,4.821l1.168,6.152
		l21.406,215.627l0.652,7.293l-1.154,5.471l-2.318,3.821l-2.986,2.652l-3.484,1.501l-3.668,0.82L747.824,406h-32.518h-31.52h-37.324
		h-26.697l-4.486-1.5l-4.141-2.64l-3.152-2.654l-2.486-3l-3.641-6.625l-1.848-5.473V167.815z M454.715,126.185h61.203h61.385
		v417.486h-61.385h-61.203V126.185z M341.937,511.501l-1.347,5.305l-2.806,4.973l-3.306,4.141l-4.334,3.485l-4.958,2.653
		l-5.154,1.667l-5.792,0.654h-0.181l-5.792-0.654l-5.488-1.667l-4.973-2.653l-4.153-3.485l-3.292-4.141l-2.681-4.973l-1.653-5.305
		l-0.667-5.808l0.667-5.638l1.653-5.488l2.681-4.958l3.292-4.167l4.153-3.639l4.973-2.488l5.488-1.986l5.792-0.333h0.181
		l5.792,0.333l5.154,1.986l4.958,2.488l4.334,3.639l3.306,4.167l2.806,4.958l1.347,5.488l0.82,5.638L341.937,511.501z
		 M409.765,511.501l-1.5,5.305l-2.821,4.973l-3.306,4.141l-4.14,3.485l-4.653,2.653l-5.321,1.667l-5.625,0.654l-5.807-0.654
		l-5.306-1.667l-4.988-2.653l-4.139-3.485l-3.471-4.141l-2.488-4.973l-1.667-5.305l-0.333-5.808l0.333-5.638l1.667-5.488
		l2.488-4.958l3.471-4.167l4.139-3.639l4.988-2.488l5.306-1.986l5.807-0.333l5.625,0.333l5.321,1.986l4.653,2.488l4.14,3.639
		l3.306,4.167l2.821,4.958l1.5,5.488l0.666,5.638L409.765,511.501z M264.302,378.469l23.378-209.168l1.5-7.626l2.486-5.819
		l3.154-4.293l3.487-2.5l2.986-2l2.167-0.82l1.972-0.333h8.626h33.171h35.171h27.045l3.306,0.333l3.487,1.152l3.487,1.848
		l3.485,2.319l2.821,2.808l2.319,3.333l1.653,3.473l0.654,4.307v221.445l-1.487,4.139l-1.486,3.487l-2.333,2.654l-2.141,2.653
		l-3.152,2l-3.487,1.485L408.599,406h-26.198H347.23h-33.171h-23.697l-5.001-0.333l-4.973-1.167l-4.959-2.14l-4.333-2.821
		l-3.306-3.82l-2.334-4.973l-1.486-5.819L264.302,378.469z"/>
	<rect x="395.999" y="678.521" fill-rule="evenodd" clip-rule="evenodd" fill="#FFFFFF" width="238.033" height="34.838"/>
	<path fill-rule="evenodd" clip-rule="evenodd" fill="#FFFFFF" d="M774.355,882.717l-33.686-38.325h71.662l-36.49-39.645h-69.996
		l-19.404-23.211h-36.658l13.932,23.211H514.266H365.315l14.1-23.378l-35.671,0.167l-20.059,23.211h-76.956l-37.505,40.311h79.47
		l-32.852,37.659h-77.635L126.63,939.6l79.956-0.14l-20.919,24.044h83.261l14.613-24.044l230.725-0.347l230.406-0.333l15.918,26.544
		h86.248l-23.379-26.712h73.635l-53.076-55.896H774.355z M514.266,882.717H317.878l22.906-37.811l173.481-0.181l173.496-0.154
		l23.072,38.146H514.266z"/>
	<rect x="345.577" y="619.307" fill-rule="evenodd" clip-rule="evenodd" fill="#FFFFFF" width="32.669" height="153.103"/>
	<rect x="649.131" y="619.307" fill-rule="evenodd" clip-rule="evenodd" fill="#FFFFFF" width="32.658" height="153.103"/>
</g>
</svg>
