<?xml version="1.0" encoding="utf-8"?>
<!-- Generator: Adobe Illustrator 16.0.4, SVG Export Plug-In . SVG Version: 6.00 Build 0)  -->
<!DOCTYPE svg PUBLIC "-//W3C//DTD SVG 1.1//EN" "http://www.w3.org/Graphics/SVG/1.1/DTD/svg11.dtd">
<svg version="1.1" id="Layer_1" xmlns="http://www.w3.org/2000/svg" xmlns:xlink="http://www.w3.org/1999/xlink" x="0px" y="0px"
	 width="1024px" height="1024px" viewBox="0 0 1024 1024" enable-background="new 0 0 1024 1024" xml:space="preserve">
<g>
	<path fill-rule="evenodd" clip-rule="evenodd" fill="#FFFFFF" d="M509.687,46.432c-263.661,0-477.466,213.758-477.466,477.466
		c0,210.955,136.807,389.929,326.521,453.066c23.859,4.416,32.623-10.362,32.623-22.972c0-11.381-0.44-48.999-0.648-88.896
		c-132.831,28.886-160.859-56.335-160.859-56.335c-21.72-55.185-53.015-69.863-53.015-69.863
		c-43.325-29.635,3.266-29.024,3.266-29.024c47.942,3.366,73.191,49.208,73.191,49.208c42.583,72.99,111.697,51.888,138.946,39.688
		c4.285-30.854,16.655-51.927,30.314-63.849c-106.053-12.068-217.542-53.015-217.542-235.964c0-52.127,18.655-94.722,49.201-128.159
		c-4.958-12.03-21.303-60.589,4.625-126.36c0,0,40.097-12.825,131.333,48.949c38.089-10.582,78.936-15.887,119.511-16.072
		c40.572,0.185,81.449,5.49,119.608,16.072c91.143-61.774,131.17-48.949,131.17-48.949c25.99,65.771,9.652,114.33,4.695,126.36
		c30.607,33.438,49.139,76.032,49.139,128.159c0,183.39-111.697,223.765-218.021,235.586c17.126,14.817,32.383,43.873,32.383,88.417
		c0,63.887-0.556,115.304-0.556,131.031c0,12.71,8.602,27.597,32.801,22.91c189.605-63.207,326.242-242.119,326.242-453.005
		C987.148,260.19,773.375,46.432,509.687,46.432z"/>
	<path fill="#FFFFFF" d="M213.063,731.965c-1.05,2.378-4.787,3.089-8.185,1.459c-3.467-1.56-5.405-4.795-4.285-7.173
		c1.027-2.439,4.764-3.119,8.223-1.49C212.283,726.32,214.26,729.587,213.063,731.965L213.063,731.965z M207.187,727.61"/>
	<path fill="#FFFFFF" d="M232.405,753.538c-2.278,2.108-6.733,1.128-9.752-2.208c-3.127-3.328-3.707-7.783-1.398-9.922
		c2.348-2.108,6.664-1.12,9.791,2.208C234.173,746.983,234.783,751.399,232.405,753.538L232.405,753.538z M227.85,748.65"/>
	<path fill="#FFFFFF" d="M251.23,781.034c-2.926,2.038-7.714,0.131-10.671-4.115c-2.927-4.247-2.927-9.343,0.069-11.382
		c2.958-2.038,7.675-0.2,10.671,4.008C254.218,773.861,254.218,778.957,251.23,781.034L251.23,781.034z M251.23,781.034"/>
	<path fill="#FFFFFF" d="M277.019,807.604c-2.617,2.888-8.192,2.107-12.269-1.83c-4.177-3.846-5.335-9.312-2.718-12.2
		c2.656-2.888,8.262-2.076,12.37,1.83C278.548,799.249,279.807,804.746,277.019,807.604L277.019,807.604z M277.019,807.604"/>
	<path fill="#FFFFFF" d="M312.599,823.03c-1.158,3.737-6.524,5.437-11.929,3.846c-5.405-1.637-8.934-6.015-7.845-9.791
		c1.12-3.768,6.517-5.536,11.96-3.837C310.183,814.877,313.719,819.224,312.599,823.03L312.599,823.03z M312.599,823.03"/>
	<path fill="#FFFFFF" d="M351.677,825.888c0.131,3.938-4.456,7.204-10.13,7.273c-5.707,0.131-10.332-3.058-10.393-6.934
		c0-3.977,4.486-7.204,10.192-7.305C347.021,818.814,351.677,821.98,351.677,825.888L351.677,825.888z M351.677,825.888"/>
	<path fill="#FFFFFF" d="M388.037,819.703c0.679,3.837-3.266,7.783-8.903,8.833c-5.544,1.02-10.671-1.359-11.381-5.166
		c-0.687-3.938,3.328-7.883,8.864-8.902C382.261,813.487,387.319,815.796,388.037,819.703L388.037,819.703z M388.037,819.703"/>
</g>
</svg>
